<?xml version="1.0" encoding="UTF-8"?>
<!DOCTYPE svg PUBLIC "-//W3C//DTD SVG 1.1//EN" "http://www.w3.org/Graphics/SVG/1.1/DTD/svg11.dtd">
<!-- Creator: CorelDRAW X7 -->
<svg xmlns="http://www.w3.org/2000/svg" xml:space="preserve" width="150px" height="150px" version="1.1" style="shape-rendering:geometricPrecision; text-rendering:geometricPrecision; image-rendering:optimizeQuality; fill-rule:evenodd; clip-rule:evenodd"
viewBox="0 0 12 12"
 xmlns:xlink="http://www.w3.org/1999/xlink">
 <defs>
  <style type="text/css">
   <![CDATA[
    .fil0 {fill:#FEFEFE}
   ]]>
  </style>
 </defs>
 <g id="Layer_x0020_1">
  <metadata id="CorelCorpID_0Corel-Layer"/>
  <g id="_2760500988608">
   <path class="fil0" d="M1 11c0,0 0,0 0,0 -1,0 0,-4 0,-5l0 -4c0,0 -1,0 0,0 0,-1 0,-1 0,-1 0,0 0,0 0,0 1,-1 8,0 9,0 1,0 2,-1 2,1l0 8c0,1 0,1 -1,2 0,0 -2,0 -2,0 -1,0 -3,0 -4,0 -1,0 -3,0 -3,0 -1,0 -1,0 -1,-1zm-1 0c0,0 1,1 1,1 0,0 1,0 1,0l7 0c1,0 2,0 3,-1 0,0 0,-1 0,-1 0,-1 0,-8 0,-9 0,0 0,0 -1,-1 0,0 -1,0 -1,0l-7 0c-1,0 -2,0 -3,1 0,0 0,1 0,1 0,1 0,9 0,9z"/>
   <path class="fil0" d="M1 7l1 1 0 -1c1,0 1,0 1,0 0,0 0,1 0,1l1 0 1 0c0,0 0,0 0,-1 -1,-1 -2,-2 -4,-1l0 1z"/>
   <path class="fil0" d="M1 0c1,0 9,0 9,0 1,0 1,0 2,0 0,0 0,1 0,1 0,1 0,8 0,9 0,1 0,1 0,2 0,0 -1,0 -1,0 0,0 -8,0 -9,0 -1,0 -1,0 -1,0 -1,0 -1,-1 -1,-1 0,0 0,-8 0,-9 0,-1 0,-1 0,-1 1,-1 1,-1 1,-1zm0 0c0,0 -1,0 -1,1 0,0 0,1 0,1 0,1 0,2 0,3l0 6c0,0 0,0 0,0 0,0 0,1 1,1l10 0c0,0 0,0 1,0 0,0 0,-2 0,-3l0 -7c0,0 0,-1 0,-2 -1,0 -1,0 -2,0 -1,0 -3,0 -4,0 -1,0 -4,0 -5,0z"/>
   <path class="fil0" d="M7 4l0 1c0,0 0,0 0,0 0,1 0,1 0,1 0,0 0,0 0,0 1,0 1,-1 1,-1 1,0 1,0 2,0 0,0 -1,-1 -1,-1 0,0 0,0 -1,0 0,0 -1,0 -1,0z"/>
   <polygon class="fil0" points="5,11 6,11 6,11 6,11 6,10 6,10 6,10 5,10 5,10 5,10 5,11 5,11 "/>
   <path class="fil0" d="M3 11l-1 0c0,0 0,0 0,0 0,0 0,0 0,0 0,0 0,0 0,0 0,0 0,0 0,-1 0,0 0,0 0,0 0,0 0,0 0,0l0 0c0,0 0,0 0,0 -1,0 -1,1 0,1 0,0 1,0 1,0z"/>
   <path class="fil0" d="M9 10l0 0c0,1 0,1 0,1l0 -1zm-1 1l1 0 0 0c0,0 0,0 0,0l0 0c0,0 0,0 0,0 0,0 0,0 0,0 0,-1 0,-1 -1,-1l0 1z"/>
   <path class="fil0" d="M10 10c0,1 0,1 0,1 1,0 1,0 1,-1l0 0c0,1 0,1 -1,1 0,0 0,-1 0,-1l0 0 0 0z"/>
   <path class="fil0" d="M4 11c0,0 0,-1 0,-1l0 1 0 0zm-1 -1c0,0 0,1 0,1l0 0 0 0 1 0 0 0 0 0 0 -1c0,0 0,0 0,0l0 0 0 0c-1,0 -1,0 -1,0l0 0z"/>
   <path class="fil0" d="M7 11c0,0 0,-1 0,-1l0 1 0 0zm1 0c0,0 0,0 0,0 0,0 0,0 0,0l-1 -1 0 0 0 1 0 0c0,0 0,0 0,0 0,0 0,0 0,0 0,0 0,0 0,0 1,0 1,0 1,0z"/>
   <path class="fil0" d="M10 7l0 1c0,0 0,0 0,-1 0,0 1,0 1,0 0,0 0,0 0,-1l0 0c0,0 0,0 0,0 -1,0 -1,0 -1,0 -1,0 -1,0 -1,0 0,0 -1,0 -1,0l0 1c-1,0 -1,0 -1,1l2 0c0,0 0,-1 0,-1 0,0 0,0 1,0z"/>
   <path class="fil0" d="M5 8c1,0 1,0 2,0 0,0 0,-1 0,-1l0 0c-1,-1 -1,-1 -1,-1 0,0 0,-1 0,-1 0,0 0,0 0,0 0,0 -1,0 -1,0 0,-1 -1,-1 -1,-1 0,0 -1,0 -1,0 0,0 0,1 -1,1 1,0 1,0 1,0l0 0 1 0c0,0 0,0 0,0 0,1 0,1 0,1 1,0 1,0 1,0l0 0c0,1 0,1 0,1 0,0 0,1 0,1z"/>
   <path class="fil0" d="M6 4c0,0 0,0 0,0 0,-1 0,-1 -1,-1 0,0 0,0 0,0 0,1 1,1 1,1z"/>
   <path class="fil0" d="M3 10l0 0 0 -1c0,0 0,0 0,1l0 0 1 -1 0 0c0,0 0,1 0,1l0 0c0,-1 0,-1 0,-1l-1 0 0 0c0,0 0,0 0,0l0 0 0 1z"/>
   <path class="fil0" d="M9 9c0,0 0,0 0,0 0,0 0,0 0,0l0 0 0 0zm0 0l0 1c0,0 0,0 0,-1l0 0 0 1 0 0 0 -1 0 0 0 0 0 0z"/>
   <path class="fil0" d="M7 9c0,0 0,0 0,0 0,0 0,0 0,0l0 0 0 0zm0 1c0,0 0,0 0,-1l0 0c0,1 1,1 1,1 0,-1 -1,-1 -1,-1 0,0 0,0 0,0 0,0 0,0 0,0 0,0 0,0 0,1z"/>
   <path class="fil0" d="M4 10l0 0c1,0 1,-1 1,-1l0 0 0 0c-1,0 0,1 -1,0 0,0 0,0 0,0l0 0c0,0 0,0 0,0 0,0 0,0 0,1z"/>
   <path class="fil0" d="M8 10l0 0 0 -1c0,0 0,0 0,0 0,0 0,0 0,0 0,0 0,0 0,0 0,0 0,0 0,0 0,0 0,0 0,0 0,0 0,0 0,0l0 0c0,0 0,0 0,0l0 0 0 0c0,0 0,0 0,1z"/>
   <path class="fil0" d="M7 9l0 0c-1,0 -1,0 -1,0 0,0 0,0 0,0 0,1 1,1 1,0 0,0 0,0 0,0l0 0 0 0z"/>
   <path class="fil0" d="M5 9c0,0 0,0 0,0 0,1 0,1 0,0 0,0 0,0 0,0l0 0c0,0 0,0 0,0z"/>
   <path class="fil0" d="M6 10l0 0 0 -1 0 0c0,0 0,0 0,1z"/>
   <path class="fil0" d="M6 3l0 1c1,0 1,0 1,-1 0,0 -1,0 -1,-1 0,0 0,0 0,0 0,0 0,-1 0,-1 0,0 0,0 0,0 0,0 0,1 0,1 -1,0 -1,0 -1,0 0,1 1,1 1,1z"/>
   <path class="fil0" d="M6 1c0,0 0,0 0,0 0,0 0,0 0,0 0,0 0,1 0,1 0,0 1,1 1,1 0,0 0,0 0,0 0,0 0,0 0,0 0,0 0,0 0,0 0,0 0,0 0,0 0,0 0,0 0,0 0,-1 -1,-1 -1,-2z"/>
  </g>
 </g>
</svg>
